<?xml version="1.0" encoding="UTF-8" standalone="no"?>
<!DOCTYPE svg PUBLIC "-//W3C//DTD SVG 1.1//EN"
 "http://www.w3.org/Graphics/SVG/1.1/DTD/svg11.dtd">
<!-- Generated by graphviz version 2.47.0 (20210316.0004)
 -->
<!-- Title: dependencies Pages: 1 -->
<svg width="1501pt" height="211pt"
 viewBox="0.00 0.00 1501.00 211.00" xmlns="http://www.w3.org/2000/svg" xmlns:xlink="http://www.w3.org/1999/xlink">
<g id="graph0" class="graph" transform="scale(1 1) rotate(0) translate(4 207)">
<title>dependencies</title>
<polygon fill="white" stroke="transparent" points="-4,4 -4,-207 1497,-207 1497,4 -4,4"/>
<text text-anchor="start" x="725.51" y="-42.4" font-family="Times-12" font-weight="bold" font-size="14.00">Legend</text>
<polygon fill="#ffffb3" stroke="transparent" points="512.5,-10 512.5,-30 532.5,-30 532.5,-10 512.5,-10"/>
<text text-anchor="start" x="536.13" y="-15.4" font-family="Times-12" font-size="14.00"> &#160;Declarations</text>
<polygon fill="#8dd3c7" stroke="transparent" points="625.5,-10 625.5,-30 645.5,-30 645.5,-10 625.5,-10"/>
<text text-anchor="start" x="649.23" y="-15.4" font-family="Times-12" font-size="14.00"> &#160;Module</text>
<polygon fill="#80b1d3" stroke="transparent" points="711.5,-10 711.5,-30 731.5,-30 731.5,-10 711.5,-10"/>
<text text-anchor="start" x="735.28" y="-15.4" font-family="Times-12" font-size="14.00"> &#160;Bootstrap</text>
<polygon fill="#fdb462" stroke="transparent" points="808.5,-10 808.5,-30 828.5,-30 828.5,-10 808.5,-10"/>
<text text-anchor="start" x="832.17" y="-15.4" font-family="Times-12" font-size="14.00"> &#160;Providers</text>
<polygon fill="#fb8072" stroke="transparent" points="904.5,-10 904.5,-30 924.5,-30 924.5,-10 904.5,-10"/>
<text text-anchor="start" x="928.23" y="-15.4" font-family="Times-12" font-size="14.00"> &#160;Exports</text>
<g id="clust1" class="cluster">
<title>cluster_AppModule</title>
<polygon fill="none" stroke="black" stroke-dasharray="1,5" points="8,-70 8,-195 1485,-195 1485,-70 8,-70"/>
</g>
<g id="clust6" class="cluster">
<title>cluster_AppModule_providers</title>
<polygon fill="none" stroke="black" points="1347,-78 1347,-130 1477,-130 1477,-78 1347,-78"/>
</g>
<g id="clust3" class="cluster">
<title>cluster_AppModule_imports</title>
<polygon fill="none" stroke="black" points="16,-78 16,-130 1339,-130 1339,-78 16,-78"/>
</g>
<!-- AuthModule -->
<g id="node1" class="node">
<title>AuthModule</title>
<polygon fill="#8dd3c7" stroke="black" points="1330.55,-122 1327.55,-126 1306.55,-126 1303.55,-122 1243.45,-122 1243.45,-86 1330.55,-86 1330.55,-122"/>
<text text-anchor="middle" x="1287" y="-99.8" font-family="Times,serif" font-size="14.00">AuthModule</text>
</g>
<!-- AppModule -->
<g id="node12" class="node">
<title>AppModule</title>
<polygon fill="#8dd3c7" stroke="black" points="795.66,-187 792.66,-191 771.66,-191 768.66,-187 712.34,-187 712.34,-151 795.66,-151 795.66,-187"/>
<text text-anchor="middle" x="754" y="-164.8" font-family="Times,serif" font-size="14.00">AppModule</text>
</g>
<!-- AuthModule&#45;&gt;AppModule -->
<g id="edge1" class="edge">
<title>AuthModule&#45;&gt;AppModule</title>
<path fill="none" stroke="black" d="M1287,-122.28C1287,-143.32 1287,-175 1287,-175 1287,-175 805.82,-175 805.82,-175"/>
<polygon fill="black" stroke="black" points="805.82,-171.5 795.82,-175 805.82,-178.5 805.82,-171.5"/>
</g>
<!-- CompanysModule -->
<g id="node2" class="node">
<title>CompanysModule</title>
<polygon fill="#8dd3c7" stroke="black" points="1225.94,-122 1222.94,-126 1201.94,-126 1198.94,-122 1106.06,-122 1106.06,-86 1225.94,-86 1225.94,-122"/>
<text text-anchor="middle" x="1166" y="-99.8" font-family="Times,serif" font-size="14.00">CompanysModule</text>
</g>
<!-- CompanysModule&#45;&gt;AppModule -->
<g id="edge2" class="edge">
<title>CompanysModule&#45;&gt;AppModule</title>
<path fill="none" stroke="black" d="M1166,-122.11C1166,-141.34 1166,-169 1166,-169 1166,-169 805.77,-169 805.77,-169"/>
<polygon fill="black" stroke="black" points="805.77,-165.5 795.77,-169 805.77,-172.5 805.77,-165.5"/>
</g>
<!-- DatabasesModule -->
<g id="node3" class="node">
<title>DatabasesModule</title>
<polygon fill="#8dd3c7" stroke="black" points="1088.29,-122 1085.29,-126 1064.29,-126 1061.29,-122 971.71,-122 971.71,-86 1088.29,-86 1088.29,-122"/>
<text text-anchor="middle" x="1030" y="-99.8" font-family="Times,serif" font-size="14.00">DatabasesModule</text>
</g>
<!-- DatabasesModule&#45;&gt;AppModule -->
<g id="edge3" class="edge">
<title>DatabasesModule&#45;&gt;AppModule</title>
<path fill="none" stroke="black" d="M1030,-122.02C1030,-139.37 1030,-163 1030,-163 1030,-163 805.92,-163 805.92,-163"/>
<polygon fill="black" stroke="black" points="805.92,-159.5 795.92,-163 805.92,-166.5 805.92,-159.5"/>
</g>
<!-- FilesModule -->
<g id="node4" class="node">
<title>FilesModule</title>
<polygon fill="#8dd3c7" stroke="black" points="953.27,-122 950.27,-126 929.27,-126 926.27,-122 866.73,-122 866.73,-86 953.27,-86 953.27,-122"/>
<text text-anchor="middle" x="910" y="-99.8" font-family="Times,serif" font-size="14.00">FilesModule</text>
</g>
<!-- FilesModule&#45;&gt;AppModule -->
<g id="edge4" class="edge">
<title>FilesModule&#45;&gt;AppModule</title>
<path fill="none" stroke="black" d="M910,-122.24C910,-137.57 910,-157 910,-157 910,-157 805.81,-157 805.81,-157"/>
<polygon fill="black" stroke="black" points="805.81,-153.5 795.81,-157 805.81,-160.5 805.81,-153.5"/>
</g>
<!-- JobsModule -->
<g id="node5" class="node">
<title>JobsModule</title>
<polygon fill="#8dd3c7" stroke="black" points="848.44,-122 845.44,-126 824.44,-126 821.44,-122 763.56,-122 763.56,-86 848.44,-86 848.44,-122"/>
<text text-anchor="middle" x="806" y="-99.8" font-family="Times,serif" font-size="14.00">JobsModule</text>
</g>
<!-- JobsModule&#45;&gt;AppModule -->
<g id="edge5" class="edge">
<title>JobsModule&#45;&gt;AppModule</title>
<path fill="none" stroke="black" d="M779.8,-122.11C779.8,-122.11 779.8,-140.99 779.8,-140.99"/>
<polygon fill="black" stroke="black" points="776.3,-140.99 779.8,-150.99 783.3,-140.99 776.3,-140.99"/>
</g>
<!-- MailModule -->
<g id="node6" class="node">
<title>MailModule</title>
<polygon fill="#8dd3c7" stroke="black" points="745.99,-122 742.99,-126 721.99,-126 718.99,-122 660.01,-122 660.01,-86 745.99,-86 745.99,-122"/>
<text text-anchor="middle" x="703" y="-99.8" font-family="Times,serif" font-size="14.00">MailModule</text>
</g>
<!-- MailModule&#45;&gt;AppModule -->
<g id="edge6" class="edge">
<title>MailModule&#45;&gt;AppModule</title>
<path fill="none" stroke="black" d="M729.08,-122.11C729.08,-122.11 729.08,-140.99 729.08,-140.99"/>
<polygon fill="black" stroke="black" points="725.58,-140.99 729.08,-150.99 732.58,-140.99 725.58,-140.99"/>
</g>
<!-- PermissionsModule -->
<g id="node7" class="node">
<title>PermissionsModule</title>
<polygon fill="#8dd3c7" stroke="black" points="641.71,-122 638.71,-126 617.71,-126 614.71,-122 514.29,-122 514.29,-86 641.71,-86 641.71,-122"/>
<text text-anchor="middle" x="578" y="-99.8" font-family="Times,serif" font-size="14.00">PermissionsModule</text>
</g>
<!-- PermissionsModule&#45;&gt;AppModule -->
<g id="edge7" class="edge">
<title>PermissionsModule&#45;&gt;AppModule</title>
<path fill="none" stroke="black" d="M578,-122.24C578,-137.57 578,-157 578,-157 578,-157 702.29,-157 702.29,-157"/>
<polygon fill="black" stroke="black" points="702.29,-160.5 712.29,-157 702.29,-153.5 702.29,-160.5"/>
</g>
<!-- ResumesModule -->
<g id="node8" class="node">
<title>ResumesModule</title>
<polygon fill="#8dd3c7" stroke="black" points="496.1,-122 493.1,-126 472.1,-126 469.1,-122 385.9,-122 385.9,-86 496.1,-86 496.1,-122"/>
<text text-anchor="middle" x="441" y="-99.8" font-family="Times,serif" font-size="14.00">ResumesModule</text>
</g>
<!-- ResumesModule&#45;&gt;AppModule -->
<g id="edge8" class="edge">
<title>ResumesModule&#45;&gt;AppModule</title>
<path fill="none" stroke="black" d="M441,-122.02C441,-139.37 441,-163 441,-163 441,-163 702.11,-163 702.11,-163"/>
<polygon fill="black" stroke="black" points="702.11,-166.5 712.11,-163 702.11,-159.5 702.11,-166.5"/>
</g>
<!-- RolesModule -->
<g id="node9" class="node">
<title>RolesModule</title>
<polygon fill="#8dd3c7" stroke="black" points="367.94,-122 364.94,-126 343.94,-126 340.94,-122 276.06,-122 276.06,-86 367.94,-86 367.94,-122"/>
<text text-anchor="middle" x="322" y="-99.8" font-family="Times,serif" font-size="14.00">RolesModule</text>
</g>
<!-- RolesModule&#45;&gt;AppModule -->
<g id="edge9" class="edge">
<title>RolesModule&#45;&gt;AppModule</title>
<path fill="none" stroke="black" d="M322,-122.11C322,-141.34 322,-169 322,-169 322,-169 702.19,-169 702.19,-169"/>
<polygon fill="black" stroke="black" points="702.19,-172.5 712.19,-169 702.19,-165.5 702.19,-172.5"/>
</g>
<!-- SubscribersModule -->
<g id="node10" class="node">
<title>SubscribersModule</title>
<polygon fill="#8dd3c7" stroke="black" points="258.36,-122 255.36,-126 234.36,-126 231.36,-122 133.64,-122 133.64,-86 258.36,-86 258.36,-122"/>
<text text-anchor="middle" x="196" y="-99.8" font-family="Times,serif" font-size="14.00">SubscribersModule</text>
</g>
<!-- SubscribersModule&#45;&gt;AppModule -->
<g id="edge10" class="edge">
<title>SubscribersModule&#45;&gt;AppModule</title>
<path fill="none" stroke="black" d="M196,-122.28C196,-143.32 196,-175 196,-175 196,-175 702.06,-175 702.06,-175"/>
<polygon fill="black" stroke="black" points="702.06,-178.5 712.06,-175 702.06,-171.5 702.06,-178.5"/>
</g>
<!-- UsersModule -->
<g id="node11" class="node">
<title>UsersModule</title>
<polygon fill="#8dd3c7" stroke="black" points="115.92,-122 112.92,-126 91.92,-126 88.92,-122 24.08,-122 24.08,-86 115.92,-86 115.92,-122"/>
<text text-anchor="middle" x="70" y="-99.8" font-family="Times,serif" font-size="14.00">UsersModule</text>
</g>
<!-- UsersModule&#45;&gt;AppModule -->
<g id="edge11" class="edge">
<title>UsersModule&#45;&gt;AppModule</title>
<path fill="none" stroke="black" d="M70,-122.09C70,-145.13 70,-182 70,-182 70,-182 702.24,-182 702.24,-182"/>
<polygon fill="black" stroke="black" points="702.24,-185.5 712.24,-182 702.24,-178.5 702.24,-185.5"/>
</g>
<!-- AppService -->
<g id="node13" class="node">
<title>AppService</title>
<ellipse fill="#fdb462" stroke="black" cx="1412" cy="-104" rx="56.74" ry="18"/>
<text text-anchor="middle" x="1412" y="-99.8" font-family="Times,serif" font-size="14.00">AppService</text>
</g>
<!-- AppService&#45;&gt;AppModule -->
<g id="edge12" class="edge">
<title>AppService&#45;&gt;AppModule</title>
<path fill="none" stroke="black" d="M1412,-122.09C1412,-145.13 1412,-182 1412,-182 1412,-182 805.66,-182 805.66,-182"/>
<polygon fill="black" stroke="black" points="805.66,-178.5 795.66,-182 805.66,-185.5 805.66,-178.5"/>
</g>
</g>
</svg>
